<svg xmlns="http://www.w3.org/2000/svg" width="583" height="450" viewBox="0 0 583 450" fill="none"><g clip-path="url(#clip0_470_811)"><g style="mix-blend-mode:multiply"><path d="M291.5 450.003C452.403 450.003 582.841 444.435 582.841 437.567C582.841 430.699 452.403 425.132 291.5 425.132C130.597 425.132 0.15918 430.699 0.15918 437.567C0.15918 444.435 130.597 450.003 291.5 450.003Z" fill="#E6ECEE"></path></g><path d="M138.825 90.3005C138.825 90.3005 153.804 89.4902 151.376 101.231C148.948 112.971 44.0978 111.757 37.214 108.922C30.3327 106.088 31.9508 91.4911 48.5481 90.2874C65.1454 89.0837 59.9163 67.2232 72.2469 69.2477C84.5776 71.2722 83.4473 87.8696 92.513 86.2515C101.579 84.6335 107.652 77.3458 113.723 82.609C119.797 87.8722 114.534 104.469 138.822 90.3005H138.825Z" fill="#E6ECEE"></path><path d="M388.299 92.0025C388.299 92.0025 373.32 91.1922 375.748 102.933C378.176 114.673 483.026 113.459 489.91 110.624C496.791 107.789 495.173 93.1931 478.576 91.9894C461.979 90.7857 467.208 68.9251 454.877 70.9497C442.546 72.9742 443.677 89.5715 434.611 87.9535C425.545 86.3354 419.472 79.0477 413.401 84.3109C407.327 89.5741 412.59 106.171 388.302 92.0025H388.299Z" fill="#E6ECEE"></path><path opacity="0.34" d="M100.275 185.363C100.275 185.363 91.2071 184.873 92.6783 191.98C94.1495 199.087 157.628 198.352 161.795 196.637C165.962 194.922 164.981 186.085 154.932 185.356C144.883 184.626 148.048 171.394 140.585 172.618C133.119 173.843 133.803 183.892 128.314 182.911C122.826 181.931 119.149 177.52 115.472 180.706C111.796 183.892 114.982 193.941 100.278 185.363H100.275Z" fill="#E6ECEE"></path><path opacity="0.34" d="M502.563 160.109C502.563 160.109 493.495 159.619 494.966 166.726C496.437 173.833 559.915 173.098 564.082 171.383C568.249 169.668 567.269 160.831 557.22 160.102C547.17 159.373 550.336 146.14 542.872 147.364C535.406 148.589 536.091 158.638 530.602 157.657C525.113 156.677 521.437 152.266 517.76 155.452C514.083 158.638 517.27 168.687 502.566 160.109H502.563Z" fill="#E6ECEE"></path><path d="M195.102 12.8237C195.102 12.8237 186.034 12.3333 187.505 19.44C188.976 26.5468 252.455 25.8125 256.622 24.0974C260.789 22.3824 259.808 13.5448 249.759 12.8158C239.71 12.0868 242.875 -1.146 235.412 0.0786736C227.946 1.30335 228.63 11.3525 223.141 10.3717C217.652 9.3909 213.976 4.97998 210.299 8.16623C206.623 11.3525 209.809 21.4016 195.105 12.8237H195.102Z" fill="#E6ECEE"></path><path opacity="0.34" d="M393.274 210.586C393.274 210.586 385.582 210.169 386.828 216.2C388.073 222.232 441.922 221.605 445.457 220.15C448.992 218.694 448.161 211.197 439.635 210.581C431.113 209.962 433.798 198.735 427.465 199.776C421.132 200.815 421.714 209.34 417.056 208.509C412.399 207.678 409.281 203.935 406.163 206.639C403.045 209.343 405.746 217.866 393.274 210.588V210.586Z" fill="#EDD6D6"></path><path d="M459.608 164.693C459.608 83.1282 393.486 17.0064 311.921 17.0064C230.356 17.0064 166.675 80.7156 164.302 160.204C161.522 164.08 158.401 167.311 155.213 170.064C152.976 171.997 150.71 173.694 148.507 175.217C141.319 180.176 134.794 183.276 132.172 186.543C125.629 194.723 131.771 203.146 141.002 207.476C141.851 207.874 142.735 208.241 143.635 208.567C144.587 208.907 145.358 209.311 145.974 209.762C151.672 213.895 144.55 222.059 142.158 226.2C141.891 226.667 141.676 227.081 141.555 227.432C141.185 228.479 141.109 229.32 141.243 230.094C141.626 232.163 143.556 233.765 145.656 237.605C148.56 242.886 138.765 243.377 140.64 251.186C141.838 256.224 146.695 257.118 149.254 259.174C150.673 260.315 151.394 261.794 150.437 264.521C148.945 268.743 144.689 279.451 147.728 289.426C149.33 294.69 152.952 299.746 160.069 303.556C161.564 304.361 163.232 305.106 165.06 305.793C167.984 306.886 171.354 307.812 175.216 308.533C176.798 308.822 178.319 309.176 179.787 309.595C181.576 310.096 183.27 310.686 184.893 311.358C190.18 313.54 194.649 316.605 198.404 320.402C199.969 321.973 201.409 323.675 202.734 325.487C204.742 328.236 206.491 331.244 208.026 334.48C208.065 334.621 211.388 345.753 214.784 367.774L216.15 383.152C216.255 383.136 216.362 383.12 216.467 383.105C217.993 382.879 219.52 382.651 221.051 382.418C222.824 382.15 224.597 381.88 226.372 381.607C227.093 381.497 227.814 381.387 228.536 381.277C229.047 381.201 229.556 381.122 230.067 381.041C231.155 380.876 232.241 380.71 233.329 380.54C239.093 379.653 244.873 378.764 250.666 377.902C261.699 376.252 272.776 374.692 283.879 373.404C287.519 372.979 291.162 372.583 294.809 372.229C300.539 371.663 306.269 371.191 312.005 370.829C318.967 370.388 325.938 370.116 332.9 370.058C338.003 370.013 343.104 370.084 348.207 370.289C350.67 370.383 353.132 370.512 355.595 370.677C359.214 370.91 362.83 371.22 366.444 371.608C366.96 371.663 367.482 371.721 367.999 371.778C369.525 371.951 371.051 372.135 372.577 372.34H372.58C373.679 372.484 374.772 372.633 375.871 372.793C376.836 372.935 377.804 373.084 378.772 373.239L364.183 320.237C364.183 320.237 365.578 319.448 368.025 317.893C369.727 316.812 371.935 315.352 374.549 313.534C379.679 309.944 386.335 304.943 393.646 298.566C395.925 296.588 398.264 294.472 400.635 292.225C407.521 285.716 414.712 278.092 421.564 269.409C424.32 265.916 427.024 262.25 429.628 258.416C432.02 254.905 434.325 251.257 436.515 247.465C440.267 240.977 443.291 234.287 445.63 227.485C454.594 208.43 459.605 187.147 459.605 164.696L459.608 164.693Z" fill="#074157"></path><path d="M208.028 334.48C208.028 334.48 220.902 368.238 216.082 434.659H393.381L365.528 308.782L208.031 334.48H208.028Z" fill="#074157"></path><path d="M362.893 279.186V434.656H302.396V377.611L341.184 326.625V286.017L362.893 279.186Z" fill="#E7E6E9"></path><path d="M351.247 286.017H249.583V309.719H351.247V286.017Z" fill="white"></path><path d="M351.247 286.017H249.583L261.227 279.186H362.893L351.247 286.017Z" fill="#E7E6E9"></path><path d="M341.36 316.547H237.937V340.249H341.36V316.547Z" fill="white"></path><path d="M340.605 316.548H237.937L249.699 309.719H352.364L340.605 316.548Z" fill="#E7E6E9"></path><path d="M327.957 347.08H226.293V370.782H327.957V347.08Z" fill="white"></path><path d="M327.957 347.08H226.293L237.937 340.249H339.603L327.957 347.08Z" fill="#E7E6E9"></path><path d="M316.311 377.611H214.647V401.312H316.311V377.611Z" fill="white"></path><path d="M316.311 377.611H214.647L226.293 370.782H327.957L316.311 377.611Z" fill="#E7E6E9"></path><path d="M304.667 408.143H203.004V434.659H304.667V408.143Z" fill="white"></path><path d="M304.667 408.143H203.004L214.647 401.315H316.311L304.667 408.143Z" fill="#E7E6E9"></path><path d="M289.357 279.186L278.561 286.017H317.475L326.234 279.186H289.357Z" fill="#19AAA9"></path><path d="M278.561 286.017V309.719H317.32L317.475 286.017H278.561Z" fill="#1BBBBA"></path><path d="M279.437 309.719L268.638 316.548H307.552L316.311 309.719H279.437Z" fill="#19AAA9"></path><path d="M268.638 316.547V340.249H307.397L307.552 316.547H268.638Z" fill="#1BBBBA"></path><path d="M269.907 340.249L259.11 347.08H298.025L306.783 340.249H269.907Z" fill="#19AAA9"></path><path d="M259.11 347.08V370.782H297.87L298.025 347.08H259.11Z" fill="#1BBBBA"></path><path d="M259.517 370.782L248.72 377.611H287.632L296.393 370.782H259.517Z" fill="#19AAA9"></path><path d="M248.72 377.611V401.315H287.48L287.632 377.611H248.72Z" fill="#1BBBBA"></path><path d="M248.516 401.315L237.717 408.143H276.631L285.392 401.315H248.516Z" fill="#19AAA9"></path><path d="M237.717 408.143V434.656H276.479L276.631 408.143H237.717Z" fill="#1BBBBA"></path><path d="M362.893 280.02L341.452 178.33C350.022 170.437 355.395 159.121 355.395 146.552C355.395 122.695 336.058 103.358 312.201 103.358C288.345 103.358 269.007 122.695 269.007 146.552C269.007 159.123 274.378 170.437 282.951 178.33L261.51 280.02H362.895H362.893Z" fill="#E8F8F8"></path><path d="M283.087 224.112L282.101 227.257L283.415 228.56C283.415 228.56 285.24 227.681 284.396 226.966L283.963 226.375L284.249 224.437L283.09 224.112H283.087Z" fill="#F2B694"></path><path d="M306.568 279.466L305.249 280.943L305.651 283.526L308.69 283.762L308.769 282.763L310.355 283.89L316.027 282.768L315.511 282.225L311.737 281.934L309.574 281.04L306.568 279.466Z" fill="#1E519E"></path><path d="M306.45 183.415L307.14 184.765L305.346 185.426L305.1 184.107C305.1 184.107 304.704 183.027 306.45 183.418V183.415Z" fill="#2360BB"></path><path d="M340.167 167.853V173.715L319.743 180.546L316.78 181.537L307.14 184.763L305.931 185.167L305.685 185.251L305.1 184.105L305.417 183.966L306.495 183.499L314.499 180.035L316.757 178.912L339.073 167.811L339.965 167.368L340.167 167.853Z" fill="#2360BB"></path><path d="M339.587 167.064L340.167 166.836V170.762L339.128 168.113C339.092 168.016 339.073 167.916 339.073 167.819V167.814C339.073 167.494 339.27 167.193 339.587 167.067V167.064Z" fill="#5282CA"></path><path d="M340.167 171.008V171.331L338.523 168.105L339.073 167.811V167.819L339.128 168.113L340.167 171.008Z" fill="#91B0DD"></path><path d="M331.122 171.884L331.796 174.42L330.629 172.136L331.122 171.884Z" fill="#91B0DD"></path><path d="M322.945 175.889L323.213 177.682L322.408 176.101L322.945 175.889Z" fill="#91B0DD"></path><path d="M298.63 188.28V191.012L303.605 192.037L303.217 188.773C303.217 188.773 303.817 189.048 304.528 189.048C305.239 189.048 305.43 186.368 305.43 186.368H305.86C306.015 186.368 306.136 186.231 306.115 186.079C306.052 185.586 305.873 184.603 305.43 184.28L305.357 182.654C305.352 182.531 305.328 182.411 305.289 182.293C305.179 181.98 304.927 181.39 304.531 181.233L300.707 182.654L299.834 183.95V185.932L298.633 188.282L298.63 188.28Z" fill="#F2B694"></path><path d="M290.716 194.733L283.743 208.538L282.746 225.471H284.598L288.644 212.988L293.6 205.488L290.716 194.733Z" fill="#1BBBBA"></path><path d="M293.278 220.711C293.278 220.711 289.294 228.46 291.285 232.302L292.001 234.151L290.726 254.926C290.726 254.926 283.315 265.882 291.285 281.677H293.278L296.409 255.495L304.379 236.996L293.281 220.711H293.278Z" fill="#1E519E"></path><path d="M304.234 191.888H298.544L292.822 192.919C291.948 193.076 291.209 193.65 290.842 194.458L290.005 196.299L292.567 210.528V215.794L292.14 222.198H308.076L310.638 200.854L309.359 193.739L304.237 191.891L304.234 191.888Z" fill="#49C9C8"></path><path d="M307.872 193.202L321.167 196.299L317.753 183.066H319.746L326.292 196.299L326.939 197.636C327.716 199.239 326.622 201.119 324.844 201.234L308.648 202.275L307.874 193.202H307.872Z" fill="#49C9C8"></path><path d="M311.491 250.515L308.04 280.235L306.238 280.691L305.249 280.943C297.707 263.297 303.524 252.791 303.524 252.791C303.524 252.791 299.113 236.996 295.982 233.154C295.329 232.355 294.899 231.411 294.629 230.422C293.595 226.659 294.844 222.201 294.844 222.201L308.257 220.714L311.493 250.517L311.491 250.515Z" fill="#2360BB"></path><path d="M319.743 183.066V180.362L318.962 178.511L316.757 178.912L317.533 180.716L316.757 181.501L317.753 183.066H319.743Z" fill="#F2B694"></path><path d="M303.878 179.03C303.878 179.03 301.853 178.556 299.831 178.828C297.809 179.101 295.625 181.613 296.771 184.291C297.917 186.968 298.184 189.098 298.184 189.098H301.688L302.289 186.968C302.289 186.968 300.977 185.329 301.743 184.511C302.509 183.693 302.944 185.494 302.944 185.494L303.217 185.877H303.928C303.928 185.877 303.054 183.583 303.217 182.982C303.38 182.382 304.145 181.755 305.074 181.81C305.074 181.81 305.074 179.431 303.875 179.033L303.878 179.03Z" fill="#1E519E"></path><path d="M291.917 279.466L290.595 280.943L290.996 283.526L294.038 283.762L294.115 282.763L295.704 283.89L301.373 282.768L300.857 282.225L297.083 281.934L294.92 281.04L291.917 279.466Z" fill="#1E519E"></path><path d="M306.238 220.934L308.173 217.627L310.478 202.157C310.478 202.157 308.915 220.638 308.252 220.711L306.235 220.934H306.238Z" fill="#FCF7F3"></path><g style="mix-blend-mode:multiply"><path d="M306.238 220.934C306.238 220.934 300.424 233.359 295.979 233.154L291.534 232.95C291.534 232.95 289.869 228.775 290.003 228.153C290.136 227.532 306.238 220.934 306.238 220.934Z" fill="#E6E6E6"></path></g><path d="M308.176 217.627L302.978 226.507C301.334 229.318 298.318 231.046 295.061 231.046H284.739L292.565 215.794L308.173 217.627H308.176Z" fill="#49C9C8"></path><g style="mix-blend-mode:multiply"><path d="M303.22 188.773L302.375 188.091L302.291 186.968L301.691 189.098L302.375 190.595L303.414 190.818L303.22 188.773Z" fill="#E6E6E6"></path></g><g style="mix-blend-mode:multiply"><path d="M302.493 185.917L302.32 185.02C302.294 184.988 302.241 184.941 302.202 184.952C302.173 184.96 302.079 185.017 302.032 185.455L301.914 185.442C301.956 185.064 302.037 184.873 302.173 184.836C302.307 184.8 302.414 184.941 302.428 184.957L302.438 184.981L302.614 185.89L302.496 185.914L302.493 185.917Z" fill="#E6E6E6"></path></g><g style="mix-blend-mode:multiply"><path d="M310.481 202.157L306.102 202.231L304.234 199.013L306.102 203.29L309.283 203.109L308.939 212.5L310.481 202.157Z" fill="#E6E6E6"></path></g><g style="mix-blend-mode:multiply"><path d="M292.074 207.796L291.08 202.275V207.796L288.644 212.988L292.074 207.796Z" fill="#E6E6E6"></path></g><g style="mix-blend-mode:multiply"><path d="M321.167 196.299L322.812 197.193L320.764 194.733L321.167 196.299Z" fill="#E6E6E6"></path></g><path d="M304.234 191.888L303.828 190.91L298.486 189.751L298.187 191.888H304.234Z" fill="#FCF7F3"></path><path d="M340.167 173.715L342.01 173.153L340.718 170.762L340.621 169.705C340.621 169.705 339.231 170.864 340.167 173.715Z" fill="#2360BB"></path><path d="M340.167 166.836L341.394 166.238L344.001 172.414C344.001 172.414 342.621 173.308 341.394 173.151L339.128 168.11L340.167 166.833V166.836Z" fill="#5282CA"></path><path d="M302.855 191.883L299.325 207.048L301.557 213.557L291.799 231.051H284.619L291.571 215.799L289.628 196.433L291.828 192.921L302.855 191.883Z" fill="#1BBBBA"></path><g style="mix-blend-mode:multiply"><path d="M306.238 280.691L305.249 280.943C297.707 263.297 303.524 252.791 303.524 252.791C303.524 252.791 299.113 236.996 295.982 233.154C295.329 232.355 294.899 231.411 294.629 230.422L300.768 229.056L307.358 248.574C307.358 248.574 302.999 273.854 306.238 280.691Z" fill="#E6E6E6"></path></g></g><defs><clipPath id="clip0_470_811"><rect width="582.682" height="450" fill="white" transform="translate(0.15918)"></rect></clipPath></defs></svg>